<svg width="36" height="36" viewBox="0 0 36 36" fill="none" xmlns="http://www.w3.org/2000/svg">
<path d="M9 28.5H13.5V21C13.5 20.575 13.644 20.219 13.932 19.932C14.22 19.645 14.576 19.501 15 19.5H21C21.425 19.5 21.7815 19.644 22.0695 19.932C22.3575 20.22 22.501 20.576 22.5 21V28.5H27V15L18 8.25L9 15V28.5ZM6 28.5V15C6 14.525 6.1065 14.075 6.3195 13.65C6.5325 13.225 6.826 12.875 7.2 12.6L16.2 5.85C16.725 5.45 17.325 5.25 18 5.25C18.675 5.25 19.275 5.45 19.8 5.85L28.8 12.6C29.175 12.875 29.469 13.225 29.682 13.65C29.895 14.075 30.001 14.525 30 15V28.5C30 29.325 29.706 30.0315 29.118 30.6195C28.53 31.2075 27.824 31.501 27 31.5H21C20.575 31.5 20.219 31.356 19.932 31.068C19.645 30.78 19.501 30.424 19.5 30V22.5H16.5V30C16.5 30.425 16.356 30.7815 16.068 31.0695C15.78 31.3575 15.424 31.501 15 31.5H9C8.175 31.5 7.469 31.2065 6.882 30.6195C6.295 30.0325 6.001 29.326 6 28.5Z" fill="white"/>
</svg>
