<svg width="28" height="31" viewBox="0 0 28 31" fill="none" xmlns="http://www.w3.org/2000/svg">
<path d="M14 0C21.7322 0 28 6.2678 28 14C28 21.7322 21.7322 28 14 28C6.2678 28 0 21.7322 0 14C0 6.2678 6.2678 0 14 0ZM14 2.8C11.0296 2.8 8.18081 3.98 6.0804 6.0804C3.98 8.18081 2.8 11.0296 2.8 14C2.8 16.9704 3.98 19.8192 6.0804 21.9196C8.18081 24.02 11.0296 25.2 14 25.2C16.9704 25.2 19.8192 24.02 21.9196 21.9196C24.02 19.8192 25.2 16.9704 25.2 14C25.2 11.0296 24.02 8.18081 21.9196 6.0804C19.8192 3.98 16.9704 2.8 14 2.8ZM14 19.6C14.3713 19.6 14.7274 19.7475 14.9899 20.01C15.2525 20.2726 15.4 20.6287 15.4 21C15.4 21.3713 15.2525 21.7274 14.9899 21.99C14.7274 22.2525 14.3713 22.4 14 22.4C13.6287 22.4 13.2726 22.2525 13.0101 21.99C12.7475 21.7274 12.6 21.3713 12.6 21C12.6 20.6287 12.7475 20.2726 13.0101 20.01C13.2726 19.7475 13.6287 19.6 14 19.6ZM14 6.3C15.1792 6.30004 16.3216 6.7107 17.2309 7.46144C18.1402 8.21218 18.7597 9.25615 18.983 10.414C19.2063 11.5719 19.0194 12.7713 18.4545 13.8064C17.8896 14.8414 16.9818 15.6475 15.8872 16.086C15.7251 16.1456 15.5789 16.2419 15.4602 16.3674C15.3986 16.4374 15.3888 16.527 15.3902 16.6194L15.4 16.8C15.3996 17.1568 15.263 17.5 15.018 17.7595C14.7731 18.019 14.4383 18.1751 14.082 18.196C13.7258 18.217 13.3751 18.1011 13.1014 17.872C12.8278 17.643 12.6519 17.3181 12.6098 16.9638L12.6 16.8V16.45C12.6 14.8358 13.902 13.867 14.8456 13.4876C15.2296 13.3342 15.5647 13.0792 15.8147 12.7498C16.0647 12.4204 16.2202 12.0291 16.2646 11.618C16.309 11.2068 16.2406 10.7914 16.0667 10.4162C15.8928 10.041 15.62 9.72029 15.2776 9.48847C14.9351 9.25664 14.536 9.12248 14.1231 9.10038C13.7101 9.07827 13.299 9.16907 12.9338 9.36302C12.5685 9.55697 12.263 9.84674 12.0501 10.2012C11.8371 10.5557 11.7247 10.9615 11.725 11.375C11.725 11.7463 11.5775 12.1024 11.3149 12.3649C11.0524 12.6275 10.6963 12.775 10.325 12.775C9.9537 12.775 9.5976 12.6275 9.33505 12.3649C9.0725 12.1024 8.925 11.7463 8.925 11.375C8.925 10.029 9.45969 8.73818 10.4114 7.78643C11.3632 6.83469 12.654 6.3 14 6.3Z" fill="#FF5252"/>
</svg>
