<svg width="24" height="20" viewBox="0 0 24 20" fill="none" xmlns="http://www.w3.org/2000/svg">
<path d="M12 19C10.3934 17.8805 8.53351 17.1671 6.58324 16.9269C5.20004 16.6487 3.79081 16.5173 2.37946 16.5349C2.19887 16.5365 2.01976 16.5026 1.85246 16.4353C1.68517 16.3679 1.533 16.2684 1.40475 16.1426C1.27649 16.0167 1.17469 15.8669 1.10523 15.7019C1.03576 15.5369 0.999993 15.3599 1 15.1811L1.02497 2.35766C1.02421 2.01359 1.15582 1.68214 1.39306 1.43067C1.63029 1.17921 1.95535 1.0266 2.30216 1.00386C3.73887 0.975588 5.17441 1.1027 6.58324 1.38292C8.5314 1.63174 10.3898 2.3434 12 3.45718M12 19V3.45718M12 19C13.6066 17.8805 15.4665 17.1671 17.4168 16.9269C18.8 16.6487 20.2092 16.5173 21.6205 16.5349C21.8011 16.5365 21.9802 16.5026 22.1475 16.4353C22.3148 16.3679 22.467 16.2684 22.5953 16.1426C22.7235 16.0167 22.8253 15.8669 22.8948 15.7019C22.9642 15.5369 23 15.3599 23 15.1811L22.9738 2.35766C22.9746 2.01378 22.8432 1.68249 22.6062 1.43105C22.3692 1.17962 22.0444 1.02688 21.6978 1.00386C20.2611 0.975588 18.8256 1.1027 17.4168 1.38292C15.4686 1.63174 13.6102 2.3434 12 3.45718" stroke="white" stroke-width="1.5" stroke-linecap="round" stroke-linejoin="round"/>
</svg>
