<svg width="35" height="35" viewBox="0 0 35 35" fill="none" xmlns="http://www.w3.org/2000/svg">
<path d="M23.789 9.29688C23.789 9.56728 23.7088 9.83161 23.5586 10.0564C23.4084 10.2813 23.1948 10.4565 22.945 10.56C22.6952 10.6635 22.4203 10.6905 22.1551 10.6378C21.8899 10.585 21.6463 10.4548 21.4551 10.2636C21.2639 10.0724 21.1336 9.82881 21.0809 9.5636C21.0281 9.29839 21.0552 9.0235 21.1587 8.77368C21.2622 8.52385 21.4374 8.31033 21.6622 8.1601C21.8871 8.00987 22.1514 7.92969 22.4218 7.92969C22.7844 7.92969 23.1322 8.07373 23.3886 8.33013C23.645 8.58653 23.789 8.93427 23.789 9.29688ZM32.539 10.9375C32.5392 11.0727 32.506 11.2059 32.4423 11.3251C32.3786 11.4444 32.2864 11.5461 32.174 11.6211L29.2577 13.5639V16.4062C29.2534 20.1034 27.7828 23.648 25.1685 26.2623C22.5541 28.8766 19.0096 30.3472 15.3124 30.3516H3.28118C2.92056 30.3516 2.56726 30.2498 2.26199 30.0578C1.95672 29.8658 1.7119 29.5914 1.55573 29.2664C1.39956 28.9413 1.3384 28.5788 1.37929 28.2205C1.42018 27.8622 1.56145 27.5227 1.78684 27.2412L1.79641 27.2289L13.3984 13.3096V10.5123C13.3984 6.09356 16.938 2.48145 21.2898 2.46094H21.3281C23.0288 2.46042 24.6847 3.00676 26.0513 4.0193C27.4178 5.03184 28.4226 6.45692 28.9173 8.08418L32.174 10.2539C32.2864 10.3289 32.3786 10.4306 32.4423 10.5499C32.506 10.6691 32.5392 10.8023 32.539 10.9375ZM30.2394 10.9375L27.7538 9.28047C27.5863 9.16886 27.4656 8.99952 27.4148 8.80469C27.0637 7.45768 26.2758 6.26519 25.1743 5.41409C24.0728 4.56298 22.72 4.10136 21.3281 4.10156H21.2966C17.8458 4.11797 15.039 6.99453 15.039 10.5123V13.6062C15.0393 13.7986 14.972 13.9849 14.849 14.1326L3.06653 28.2707C3.03548 28.311 3.0163 28.3592 3.01116 28.4099C3.00602 28.4605 3.01511 28.5116 3.03742 28.5573C3.05973 28.6031 3.09436 28.6417 3.13743 28.6688C3.18049 28.696 3.23028 28.7106 3.28118 28.7109H7.09016L16.8697 16.975C17.0095 16.8098 17.2089 16.7066 17.4246 16.6878C17.6402 16.669 17.8545 16.7362 18.0207 16.8747C18.187 17.0133 18.2919 17.2119 18.3124 17.4273C18.3329 17.6428 18.2674 17.8576 18.1302 18.025L9.22571 28.7109H15.3124C18.5747 28.7073 21.7024 27.4098 24.0092 25.103C26.316 22.7962 27.6135 19.6685 27.6171 16.4062V13.125C27.6169 12.9898 27.6501 12.8566 27.7138 12.7374C27.7775 12.6181 27.8697 12.5164 27.9822 12.4414L30.2394 10.9375Z" fill="#FF5252"/>
</svg>
