<svg width="38" height="38" viewBox="0 0 38 38" fill="none" xmlns="http://www.w3.org/2000/svg">
<path d="M24.4735 15.3187L24.2471 15.0939C23.1864 14.0736 21.8845 13.3387 20.4629 12.9579C15.8602 11.7245 11.4395 14.3339 10.1839 19.0221C10.1158 19.2754 10.0794 19.5604 10.0193 20.2745C9.77542 23.2354 9.07875 25.4441 7.16925 27.6845C10.7476 29.0905 14.9878 30.0817 18.2114 30.0817C20.1279 30.0792 21.9901 29.4452 23.51 28.2777C25.0298 27.1102 26.1225 25.4744 26.6189 23.6233C27.0082 22.1715 27.015 20.6436 26.6388 19.1883C26.2626 17.7331 25.5177 16.3999 24.4735 15.3187ZM21.0393 9.8372L28.8593 3.75403C29.164 3.51772 29.5444 3.40068 29.9292 3.42488C30.314 3.44907 30.6767 3.61284 30.9493 3.88545L35.6914 8.62595C35.9638 8.89879 36.1273 9.26163 36.1512 9.64642C36.1751 10.0312 36.0578 10.4115 35.8213 10.716L29.7413 18.536C30.1699 20.2847 30.1957 22.1079 29.8165 23.8679C29.4374 25.628 28.6632 27.2788 27.5526 28.6959C26.4419 30.1129 25.0238 31.259 23.4053 32.0477C21.7868 32.8363 20.0103 33.2469 18.2098 33.2484C12.6666 33.2484 5.54158 30.8702 1.58325 28.4952C7.88492 23.7452 6.40767 20.8794 7.12492 18.2035C8.80009 11.9494 14.7898 8.29503 21.0393 9.8372ZM26.4416 12.8123C26.545 12.9126 26.6474 13.0144 26.7487 13.1179L28.5474 14.9149L32.4662 9.87678L29.7017 7.11228L24.6635 11.031L26.4416 12.8123Z" fill="white"/>
</svg>
