<svg width="25" height="25" viewBox="0 0 25 25" fill="none" xmlns="http://www.w3.org/2000/svg">
<path d="M16.1011 10.0782L15.9522 9.93024C15.2544 9.25899 14.3979 8.77554 13.4626 8.52503C10.4345 7.71358 7.52612 9.43024 6.70008 12.5146C6.65529 12.6813 6.63133 12.8688 6.59175 13.3386C6.43133 15.2865 5.973 16.7396 4.71675 18.2136C7.07091 19.1386 9.8605 19.7907 11.9813 19.7907C13.2422 19.789 14.4673 19.3719 15.4672 18.6038C16.4671 17.8357 17.186 16.7595 17.5126 15.5417C17.7687 14.5865 17.7732 13.5814 17.5257 12.624C17.2781 11.6665 16.7881 10.7895 16.1011 10.0782ZM13.8417 6.47191L18.9865 2.46983C19.187 2.31436 19.4372 2.23736 19.6904 2.25328C19.9435 2.26919 20.1822 2.37693 20.3615 2.55628L23.4813 5.67503C23.6605 5.85453 23.7681 6.09325 23.7838 6.3464C23.7995 6.59955 23.7224 6.84974 23.5667 7.05003L19.5667 12.1948C19.8488 13.3452 19.8657 14.5447 19.6163 15.7026C19.3668 16.8606 18.8575 17.9467 18.1268 18.8789C17.3961 19.8112 16.4632 20.5652 15.3984 21.0841C14.3336 21.6029 13.1648 21.873 11.9803 21.874C8.33342 21.874 3.64591 20.3094 1.04175 18.7469C5.18758 15.6219 4.21571 13.7365 4.68758 11.9761C5.78966 7.86149 9.73029 5.45733 13.8417 6.47191ZM17.3959 8.4292C17.464 8.49517 17.5313 8.56219 17.598 8.63024L18.7813 9.81253L21.3595 6.49795L19.5407 4.6792L16.2261 7.25733L17.3959 8.4292Z" fill="white"/>
</svg>
